<svg xmlns="http://www.w3.org/2000/svg" xmlns:xlink="http://www.w3.org/1999/xlink" viewBox="0 0 25.03 32.58"  width="40" height="50"><defs><style>.cls-1{isolation:isolate;}.cls-2{opacity:0.2;mix-blend-mode:multiply;fill:url(#radial-gradient);}.cls-3{fill:#378e43;}.cls-4,.cls-5{fill:#fff;}.cls-4{stroke:#a5d5a7;stroke-miterlimit:10;stroke-width:2.52px;}.cls-5{opacity:0.23;mix-blend-mode:overlay;}</style><radialGradient id="radial-gradient" cx="139.87" cy="686.81" r="68.19" gradientTransform="translate(-13.16 -8.94) scale(0.18 0.06)" gradientUnits="userSpaceOnUse"><stop offset="0.18" stop-color="#434343"/><stop offset="0.25" stop-color="#6c6c6c"/><stop offset="0.32" stop-color="#939393"/><stop offset="0.41" stop-color="#b4b4b4"/><stop offset="0.49" stop-color="#d0d0d0"/><stop offset="0.58" stop-color="#e5e5e5"/><stop offset="0.69" stop-color="#f4f4f4"/><stop offset="0.81" stop-color="#fcfcfc"/><stop offset="1" stop-color="#fff"/></radialGradient></defs><title>map-pin</title><g class="cls-1"><g id="Layer_1" data-name="Layer 1"><ellipse class="cls-2" cx="12.52" cy="28.83" rx="12.52" ry="3.75"/><path class="cls-3" d="M24.16,11.56c0,7.32-10.28,18.16-10.28,18.16S3.59,18.88,3.59,11.56,8.19.46,13.88.46,24.16,4.24,24.16,11.56Z" transform="translate(-1.36 -0.46)"/><circle class="cls-4" cx="12.52" cy="10.43" r="7.89"/><circle class="cls-3" cx="12.52" cy="7.69" r="2.48"/><path class="cls-3" d="M16.21,10.18h0a3,3,0,0,1-4.59,0h0a2,2,0,0,0-2,2v3H11V13.56h0a.34.34,0,0,1,.34-.34.34.34,0,0,1,.34.34v1.69H16.1V13.55a.34.34,0,0,1,.68,0v1.69h1.47v-3A2,2,0,0,0,16.21,10.18Z" transform="translate(-1.36 -0.46)"/><path class="cls-5" d="M13.88.46V29.72S24.16,18.88,24.16,11.56,19.56.46,13.88.46Z" transform="translate(-1.36 -0.46)"/></g></g></svg>